<?xml version="1.0"?>
<svg xmlns:rdf="http://www.w3.org/1999/02/22-rdf-syntax-ns#" xmlns="http://www.w3.org/2000/svg" xmlns:cc="http://creativecommons.org/ns#" xmlns:dc="http://purl.org/dc/elements/1.1/" xmlns:svg="http://www.w3.org/2000/svg" id="svg2710" viewBox="0 0 107.97 83.89" version="1.0">
  <g id="layer1" transform="translate(-300.3 -638.99)">
    <g id="g13593" stroke-linecap="round" stroke-miterlimit=".5" transform="translate(-3.7472 389.4)">
      <path id="path11921" stroke-linejoin="round" d="m382.43 306.74c8.54-2.06 14.01-5.2 14.01-8.7 0-0.42-0.26-0.79-0.41-1.19 0.91 0.23 1.82 0.47 2.82 0.47 5.56 0 10.09-3.78 10.09-8.44 0-4.65-4.53-8.44-10.09-8.44-0.69 0-1.27 0.24-1.91 0.35 0.56-1.86 0.94-3.76 0.94-5.78 0-12.33-11.16-22.35-24.94-22.35-9.77 0-18.15 5.07-22.25 12.38-1.64-0.92-3.45-1.47-5.38-1.47-5.83 0-10.68 4.69-12.18 11.06-2.56-1.01-5.54-1.62-8.72-1.62-9.54 0-17.28 5.22-17.28 11.65 0 5.81 6.34 10.59 14.59 11.47-0.37 0.63-0.66 1.25-0.66 1.91 0 2.86 3.64 5.47 9.63 7.46m51.62 1.26c0.04-0.01-10.15 0.98-10.11 0.97m-41.51-2.23c0.04 0.01 7.55 1.7 8.56 1.64" stroke="#6798e9" stroke-width="6.154" fill="none"/>
      <path id="path11929" d="m336.74 363.88a10.318 10.318 0 1 1 -20.64 0 10.318 10.318 0 1 1 20.64 0z" transform="matrix(.77419 0 0 .77419 103.25 23.035)" stroke="#a6a6a6" stroke-width=".17299" fill="#9e9e9e"/>
      <path id="path11933" d="m336.74 363.88a10.318 10.318 0 1 1 -20.64 0 10.318 10.318 0 1 1 20.64 0z" transform="matrix(.77419 0 0 .77419 88.247 43.709)" stroke="#a6a6a6" stroke-width=".17299" fill="#9e9e9e"/>
    </g>
  </g>
  <metadata>
    <rdf:RDF>
      <cc:Work>
        <dc:format>image/svg+xml</dc:format>
        <dc:type rdf:resource="http://purl.org/dc/dcmitype/StillImage"/>
        <cc:license rdf:resource="http://creativecommons.org/licenses/publicdomain/"/>
        <dc:publisher>
          <cc:Agent rdf:about="http://openclipart.org/">
            <dc:title>Openclipart</dc:title>
          </cc:Agent>
        </dc:publisher>
        <dc:title>simple weather symbols</dc:title>
        <dc:date>2008-02-08T23:54:06</dc:date>
        <dc:description>clip art, clipart, clouds, clouds, icon, icon, image, media, png, public domain, rain, rain, snow, snow, sun, sun, svg, symbol, symbol, weather, weather, </dc:description>
        <dc:source>http://openclipart.org/detail/14713/simple-weather-symbols-by-anonymous-14713</dc:source>
        <dc:creator>
          <cc:Agent>
            <dc:title>Anonymous</dc:title>
          </cc:Agent>
        </dc:creator>
        <dc:subject>
          <rdf:Bag>
            <rdf:li>clip art</rdf:li>
            <rdf:li>clipart</rdf:li>
            <rdf:li>clouds</rdf:li>
            <rdf:li>icon</rdf:li>
            <rdf:li>image</rdf:li>
            <rdf:li>media</rdf:li>
            <rdf:li>png</rdf:li>
            <rdf:li>public domain</rdf:li>
            <rdf:li>rain</rdf:li>
            <rdf:li>snow</rdf:li>
            <rdf:li>sun</rdf:li>
            <rdf:li>svg</rdf:li>
            <rdf:li>symbol</rdf:li>
            <rdf:li>weather</rdf:li>
          </rdf:Bag>
        </dc:subject>
      </cc:Work>
      <cc:License rdf:about="http://creativecommons.org/licenses/publicdomain/">
        <cc:permits rdf:resource="http://creativecommons.org/ns#Reproduction"/>
        <cc:permits rdf:resource="http://creativecommons.org/ns#Distribution"/>
        <cc:permits rdf:resource="http://creativecommons.org/ns#DerivativeWorks"/>
      </cc:License>
    </rdf:RDF>
  </metadata>
</svg>
